# Blender v2.76 (sub 0) OBJ File: 'cactus1.blend'
# www.blender.org
mtllib cactus1.mtl
o Cube
v 0.300000 -0.500000 -0.300000
v 0.300000 -0.500000 0.300000
v -0.300000 -0.500000 0.300000
v -0.300000 -0.500000 -0.300000
v 0.300000 0.500000 -0.300000
v 0.300000 0.500000 0.300000
v -0.300000 0.500000 0.300000
v -0.300000 0.500000 -0.300000
v -0.300000 1.600000 -0.300000
v -0.300000 1.600000 0.300000
v 0.300000 1.600000 0.300000
v 0.300000 1.600000 -0.300000
v 0.300000 0.900000 -0.300000
v 0.300000 0.900000 0.300000
v -0.300000 0.900000 0.300000
v -0.300000 0.900000 -0.300000
v 1.000000 0.900000 0.300001
v 1.000000 0.900000 -0.299999
v 1.000000 0.500000 0.300001
v 1.000000 0.500000 -0.299999
v 0.300000 1.600000 -0.300000
v 0.300000 1.600000 0.300000
v -0.300000 1.600000 0.300000
v -0.300000 1.600000 -0.300000
vn 0.000000 -1.000000 0.000000
vn 0.000000 0.000000 1.000000
vn 1.000000 0.000000 0.000000
vn -1.000000 -0.000000 -0.000000
vn 0.000000 0.000000 -1.000000
vn 0.000000 1.000000 0.000000
usemtl Material
s off
f 1//1 2//1 3//1 4//1
f 10//2 11//2 22//2 23//2
f 1//3 5//3 6//3 2//3
f 2//2 6//2 7//2 3//2
f 3//4 7//4 8//4 4//4
f 5//5 1//5 4//5 8//5
f 5//5 8//5 16//5 13//5
f 8//4 7//4 15//4 16//4
f 6//1 5//1 20//1 19//1
f 7//2 6//2 14//2 15//2
f 19//3 20//3 18//3 17//3
f 14//3 13//3 12//3 11//3
f 15//2 14//2 11//2 10//2
f 13//5 16//5 9//5 12//5
f 16//4 15//4 10//4 9//4
f 21//6 24//6 23//6 22//6
f 11//2 12//2 21//2 22//2
f 9//2 10//2 23//2 24//2
f 12//2 9//2 24//2 21//2
f 14//2 6//2 19//2 17//2
f 5//5 13//5 18//5 20//5
f 13//6 14//6 17//6 18//6
