# Blender v2.76 (sub 0) OBJ File: 'person.blend'
# www.blender.org
mtllib person.mtl
o Cube.002_Cube.004
v -0.104009 0.000676 0.406307
v -0.104009 0.200676 0.406307
v -0.104009 0.000676 0.206307
v -0.104009 0.200676 0.206307
v 0.505991 0.000676 0.406307
v 0.505991 0.090676 0.406307
v 0.505991 0.000676 0.206307
v 0.505991 0.090676 0.206307
vn -1.000000 0.000000 0.000000
vn 0.000000 0.000000 -1.000000
vn 1.000000 0.000000 0.000000
vn 0.000000 0.000000 1.000000
vn 0.000000 -1.000000 0.000000
vn 0.177500 0.984100 0.000000
usemtl None
s off
f 2//1 4//1 3//1 1//1
f 4//2 8//2 7//2 3//2
f 8//3 6//3 5//3 7//3
f 6//4 2//4 1//4 5//4
f 1//5 3//5 7//5 5//5
f 6//6 8//6 4//6 2//6
o Cube.001_Cube.003
v -0.104009 0.000676 -0.193693
v -0.104009 0.200676 -0.193693
v -0.104009 0.000676 -0.393693
v -0.104009 0.200676 -0.393693
v 0.505991 0.000676 -0.193693
v 0.505991 0.090676 -0.193693
v 0.505991 0.000676 -0.393693
v 0.505991 0.090676 -0.393693
vn -1.000000 0.000000 0.000000
vn -0.000000 0.000000 -1.000000
vn 1.000000 0.000000 0.000000
vn 0.000000 0.000000 1.000000
vn 0.000000 -1.000000 0.000000
vn 0.177500 0.984100 0.000000
usemtl None
s off
f 10//7 12//7 11//7 9//7
f 12//8 16//8 15//8 11//8
f 16//9 14//9 13//9 15//9
f 14//10 10//10 9//10 13//10
f 9//11 11//11 15//11 13//11
f 14//12 16//12 12//12 10//12
o Cube
v 0.700000 0.201716 -0.700000
v 0.700000 0.201716 0.700000
v -0.700000 0.201716 0.700000
v -0.700000 0.201716 -0.700000
v 1.000000 0.501716 -0.999999
v 0.999999 0.501716 1.000001
v -1.000000 0.501716 1.000000
v -1.000000 0.501716 -1.000000
v 1.000000 0.500000 -1.000000
v 1.000000 0.500000 1.000000
v -1.000000 0.500000 1.000000
v -1.000000 0.500000 -1.000000
v 0.800000 2.500000 -0.800000
v 0.799999 2.500000 0.800001
v -0.800000 2.500000 0.800000
v -0.800000 2.500000 -0.800000
v 0.600000 2.574710 -0.600000
v 0.600000 2.574710 0.600000
v -0.600000 2.574710 0.600000
v -0.600000 2.574710 -0.600000
v 0.600000 3.294710 -0.600000
v 0.600000 3.294710 0.600000
v -0.600000 3.294710 0.600000
v -0.600000 3.294710 -0.600000
v 0.600000 2.574710 0.000000
v 0.600000 2.934710 -0.600000
v 0.600000 2.934710 0.600000
v 0.600000 3.294710 0.000000
v 1.600000 2.934710 0.000000
v 0.600000 2.574710 0.300000
v 0.600000 3.114710 -0.600000
v 0.600000 3.114710 0.600000
v 0.600000 3.294710 0.300000
v 0.600000 2.574710 -0.300000
v 0.600000 2.754710 -0.600000
v 0.600000 2.754710 0.600000
v 0.600000 3.294710 -0.300000
v 0.600000 2.934710 0.300000
v 0.600000 2.934710 -0.300000
v 0.600000 2.754710 0.000000
v 0.600000 3.114710 0.000000
v 0.600000 3.114710 -0.300000
v 0.600000 2.754710 -0.300000
v 0.600000 2.754710 0.300000
v 0.600000 3.114710 0.300000
vn 0.000000 -1.000000 -0.000000
vn 0.000000 1.000000 0.000000
vn 0.707100 -0.707100 0.000000
vn -0.000000 -0.707100 0.707100
vn -0.707100 -0.707100 -0.000000
vn 0.000000 -0.707100 -0.707100
vn 0.995000 0.099500 0.000000
vn -0.000000 0.099500 0.995000
vn -0.995000 0.099500 -0.000000
vn 0.000000 0.099500 -0.995000
vn 1.000000 0.000000 0.000000
vn -0.000000 -0.000000 1.000000
vn -1.000000 -0.000000 -0.000000
vn 0.000000 0.000000 -1.000000
vn 0.295000 -0.819300 -0.491600
vn 0.295000 0.819300 -0.491600
vn 0.295000 -0.819300 0.491600
vn 0.295000 0.819300 0.491600
usemtl Material
s off
f 17//13 18//13 19//13 20//13
f 21//14 24//14 23//14 22//14
f 17//15 21//15 22//15 18//15
f 18//16 22//16 23//16 19//16
f 19//17 23//17 24//17 20//17
f 21//18 17//18 20//18 24//18
f 25//13 26//13 27//13 28//13
f 29//14 32//14 31//14 30//14
f 25//19 29//19 30//19 26//19
f 26//20 30//20 31//20 27//20
f 27//21 31//21 32//21 28//21
f 29//22 25//22 28//22 32//22
f 33//13 50//13 41//13 46//13 34//13 35//13 36//13
f 37//14 40//14 39//14 38//14 49//14 44//14 53//14
f 61//23 49//23 38//23 48//23
f 34//24 52//24 43//24 48//24 38//24 39//24 35//24
f 35//25 39//25 40//25 36//25
f 37//26 47//26 42//26 51//26 33//26 36//26 40//26
f 60//23 54//23 43//23 52//23
f 59//27 55//27 45//27 56//27
f 58//23 53//23 44//23 57//23
f 55//28 58//28 57//28 45//28
f 42//23 47//23 58//23 55//23
f 47//23 37//23 53//23 58//23
f 50//23 59//23 56//23 41//23
f 33//23 51//23 59//23 50//23
f 51//23 42//23 55//23 59//23
f 46//23 60//23 52//23 34//23
f 41//23 56//23 60//23 46//23
f 56//29 45//29 54//29 60//29
f 54//23 61//23 48//23 43//23
f 45//30 57//30 61//30 54//30
f 57//23 44//23 49//23 61//23
