# Blender v2.76 (sub 0) OBJ File: 'mushroom.blend'
# www.blender.org
mtllib tree.mtl
o Cube
v 0.300000 0.000999 -0.300000
v 0.300000 0.000999 0.300000
v -0.300000 0.000999 0.300000
v -0.300000 0.000999 -0.300000
v 0.300000 3.121000 -0.300000
v 0.300000 3.121000 0.300000
v -0.300000 3.121000 0.300000
v -0.300000 3.121000 -0.300000
v 0.540000 3.433000 -0.540000
v 0.540000 3.433000 0.540000
v -0.540000 3.433000 0.540000
v -0.540000 3.433000 -0.540000
v 1.555202 3.027399 -1.555200
v 1.555200 3.027399 1.555201
v -1.555201 3.027399 1.555200
v -1.555200 3.027399 -1.555201
v 1.555202 4.899399 -1.555200
v 1.555200 4.899399 1.555201
v -1.555201 4.899399 1.555200
v -1.555200 4.899399 -1.555201
v 0.933121 5.648200 -0.933120
v 0.933120 5.648200 0.933121
v -0.933121 5.648200 0.933120
v -0.933120 5.648200 -0.933121
vn 0.000000 -1.000000 -0.000000
vn 0.792600 -0.609700 0.000000
vn 1.000000 0.000000 0.000000
vn -0.000000 -0.000000 1.000000
vn -1.000000 -0.000000 -0.000000
vn 0.000000 0.000000 -1.000000
vn 0.371000 -0.928600 0.000000
vn -0.792600 -0.609700 -0.000000
vn 0.000000 -0.609700 -0.792600
vn -0.000000 -0.609700 0.792600
vn -0.000000 -0.928600 0.371000
vn 0.000000 -0.928600 -0.371000
vn -0.371000 -0.928600 -0.000000
vn -0.000000 0.639000 0.769200
vn 0.000000 1.000000 -0.000000
vn 0.769200 0.639000 0.000000
vn -0.769200 0.639000 -0.000000
vn 0.000000 0.639000 -0.769200
usemtl Material
s off
f 1//1 2//1 3//1 4//1
f 6//2 5//2 9//2 10//2
f 1//3 5//3 6//3 2//3
f 2//4 6//4 7//4 3//4
f 3//5 7//5 8//5 4//5
f 5//6 1//6 4//6 8//6
f 12//7 11//7 15//7 16//7
f 8//8 7//8 11//8 12//8
f 5//9 8//9 12//9 9//9
f 7//10 6//10 10//10 11//10
f 15//4 14//4 18//4 19//4
f 9//11 12//11 16//11 13//11
f 11//12 10//12 14//12 15//12
f 10//13 9//13 13//13 14//13
f 19//14 18//14 22//14 23//14
f 14//3 13//3 17//3 18//3
f 16//5 15//5 19//5 20//5
f 13//6 16//6 20//6 17//6
f 21//15 24//15 23//15 22//15
f 18//16 17//16 21//16 22//16
f 20//17 19//17 23//17 24//17
f 17//18 20//18 24//18 21//18
